<svg width="23" height="23" viewBox="0 0 23 23" fill="none" xmlns="http://www.w3.org/2000/svg">
<path d="M4.05837 9.15565H6.09728C8.13619 9.15565 9.15565 8.13619 9.15565 6.09728V4.05837C9.15565 2.01946 8.13619 1 6.09728 1H4.05837C2.01946 1 1 2.01946 1 4.05837V6.09728C1 8.13619 2.01946 9.15565 4.05837 9.15565Z" stroke="white" stroke-width="2" stroke-miterlimit="10" stroke-linecap="round" stroke-linejoin="round"/>
<path d="M16.2918 9.15565H18.3307C20.3697 9.15565 21.3891 8.13619 21.3891 6.09728V4.05837C21.3891 2.01946 20.3697 1 18.3307 1H16.2918C14.2529 1 13.2335 2.01946 13.2335 4.05837V6.09728C13.2335 8.13619 14.2529 9.15565 16.2918 9.15565Z" stroke="white" stroke-width="2" stroke-miterlimit="10" stroke-linecap="round" stroke-linejoin="round"/>
<path d="M16.2918 21.3891H18.3307C20.3697 21.3891 21.3891 20.3697 21.3891 18.3307V16.2918C21.3891 14.2529 20.3697 13.2335 18.3307 13.2335H16.2918C14.2529 13.2335 13.2335 14.2529 13.2335 16.2918V18.3307C13.2335 20.3697 14.2529 21.3891 16.2918 21.3891Z" stroke="white" stroke-width="2" stroke-miterlimit="10" stroke-linecap="round" stroke-linejoin="round"/>
<path d="M4.05837 21.3891H6.09728C8.13619 21.3891 9.15565 20.3697 9.15565 18.3307V16.2918C9.15565 14.2529 8.13619 13.2335 6.09728 13.2335H4.05837C2.01946 13.2335 1 14.2529 1 16.2918V18.3307C1 20.3697 2.01946 21.3891 4.05837 21.3891Z" stroke="white" stroke-width="2" stroke-miterlimit="10" stroke-linecap="round" stroke-linejoin="round"/>
</svg>
