<svg width="37" height="37" viewBox="0 0 37 37" fill="none" xmlns="http://www.w3.org/2000/svg">
<path d="M27.1612 27.1625C31.9387 22.385 31.9387 14.6151 27.1612 9.83759" stroke="white" stroke-width="2" stroke-miterlimit="10" stroke-linecap="round" stroke-linejoin="round"/>
<path d="M9.83654 9.83759C5.05904 14.6151 5.05904 22.385 9.83654 27.1625" stroke="white" stroke-width="2" stroke-miterlimit="10" stroke-linecap="round" stroke-linejoin="round"/>
<path d="M14.4224 21.3525C14.4224 22.9275 15.6473 24.205 17.1523 24.205H20.2323C21.5448 24.205 22.6123 23.085 22.6123 21.72C22.6123 20.2325 21.9648 19.69 20.9848 19.3575L16.0673 17.6425C15.1048 17.31 14.4398 16.7675 14.4398 15.28C14.4398 13.8975 15.5073 12.795 16.8198 12.795H19.8998C21.4048 12.795 22.6298 14.0725 22.6298 15.6475" stroke="white" stroke-width="2" stroke-linecap="round" stroke-linejoin="round"/>
<path d="M18.5001 11.1501V25.85" stroke="white" stroke-width="2" stroke-linecap="round" stroke-linejoin="round"/>
<path d="M4.5 8C2.3125 10.9225 1 14.5625 1 18.5C1 28.16 8.84 36 18.5 36C28.16 36 36 28.16 36 18.5C36 8.84 28.16 1 18.5 1C15.9975 1 13.6 1.525 11.4475 2.4875" stroke="white" stroke-width="2" stroke-linecap="round" stroke-linejoin="round"/>
</svg>
