<svg width="28" height="24" viewBox="0 0 28 24" fill="none" xmlns="http://www.w3.org/2000/svg">
<path d="M20.2371 23.7706H7.38816C2.69828 23.7706 0 21.0723 0 16.3824V7.38816C0 2.69828 2.69828 0 7.38816 0H20.2371C24.927 0 27.6253 2.69828 27.6253 7.38816V16.3824C27.6253 21.0723 24.927 23.7706 20.2371 23.7706ZM7.38816 1.92734C3.71335 1.92734 1.92735 3.71335 1.92735 7.38816V16.3824C1.92735 20.0572 3.71335 21.8432 7.38816 21.8432H20.2371C23.9119 21.8432 25.6979 20.0572 25.6979 16.3824V7.38816C25.6979 3.71335 23.9119 1.92734 20.2371 1.92734H7.38816Z" fill="white"/>
<path d="M13.8129 16.7036C11.1531 16.7036 8.99451 14.545 8.99451 11.8853C8.99451 9.22552 11.1531 7.06689 13.8129 7.06689C16.4726 7.06689 18.6312 9.22552 18.6312 11.8853C18.6312 14.545 16.4726 16.7036 13.8129 16.7036ZM13.8129 8.99424C12.2196 8.99424 10.9219 10.292 10.9219 11.8853C10.9219 13.4785 12.2196 14.7763 13.8129 14.7763C15.4061 14.7763 16.7039 13.4785 16.7039 11.8853C16.7039 10.292 15.4061 8.99424 13.8129 8.99424Z" fill="white"/>
<path d="M5.46099 16.0613C4.93418 16.0613 4.49731 15.6244 4.49731 15.0976V8.67315C4.49731 8.14634 4.93418 7.70947 5.46099 7.70947C5.98779 7.70947 6.42466 8.14634 6.42466 8.67315V15.0976C6.42466 15.6244 5.98779 16.0613 5.46099 16.0613Z" fill="white"/>
<path d="M22.1648 16.0613C21.638 16.0613 21.2012 15.6244 21.2012 15.0976V8.67315C21.2012 8.14634 21.638 7.70947 22.1648 7.70947C22.6917 7.70947 23.1285 8.14634 23.1285 8.67315V15.0976C23.1285 15.6244 22.6917 16.0613 22.1648 16.0613Z" fill="white"/>
</svg>
