<svg width="182" height="49" viewBox="0 0 182 49" fill="none" xmlns="http://www.w3.org/2000/svg">
<path d="M47.488 34.277C46.0354 34.277 44.7858 33.9692 43.7394 33.3537C42.6992 32.732 41.899 31.8703 41.3389 30.7685C40.7849 29.6667 40.5079 28.3987 40.5079 26.9645C40.5079 25.5118 40.788 24.2377 41.3481 23.142C41.9144 22.0402 42.7177 21.1816 43.7579 20.5661C44.7981 19.9444 46.0354 19.6335 47.4695 19.6335C48.7068 19.6335 49.7901 19.8582 50.7195 20.3075C51.649 20.7569 52.3846 21.3878 52.9262 22.2003C53.4679 23.0128 53.7664 23.9669 53.8218 25.0625H50.1102C50.0055 24.3546 49.7285 23.7853 49.2792 23.3544C48.836 22.9174 48.2544 22.6989 47.5342 22.6989C46.9248 22.6989 46.3924 22.8651 45.9369 23.1974C45.4875 23.5237 45.1367 24.0007 44.8843 24.6286C44.632 25.2564 44.5058 26.0166 44.5058 26.9091C44.5058 27.8139 44.6289 28.5833 44.8751 29.2173C45.1275 29.8513 45.4814 30.3345 45.9369 30.6669C46.3924 30.9993 46.9248 31.1655 47.5342 31.1655C47.9835 31.1655 48.3867 31.0732 48.7437 30.8885C49.1069 30.7038 49.4054 30.4361 49.6393 30.0852C49.8794 29.7282 50.0363 29.3004 50.1102 28.8018H53.8218C53.7603 29.8852 53.4648 30.8393 52.9355 31.6641C52.4123 32.4827 51.689 33.1229 50.7657 33.5845C49.8424 34.0462 48.7499 34.277 47.488 34.277ZM60.3841 34.2678C59.4793 34.2678 58.673 34.1108 57.9651 33.7969C57.2573 33.4768 56.6971 33.0059 56.2847 32.3842C55.8785 31.7564 55.6753 30.9747 55.6753 30.0391C55.6753 29.2512 55.82 28.5895 56.1093 28.054C56.3986 27.5185 56.7925 27.0876 57.2911 26.7614C57.7897 26.4351 58.356 26.1889 58.99 26.0227C59.6301 25.8565 60.301 25.7396 61.0028 25.6719C61.8276 25.5857 62.4923 25.5057 62.9971 25.4318C63.5018 25.3518 63.868 25.2348 64.0958 25.081C64.3235 24.9271 64.4374 24.6993 64.4374 24.3977V24.3423C64.4374 23.7576 64.2528 23.3052 63.8834 22.9851C63.5203 22.665 63.0032 22.505 62.3323 22.505C61.6244 22.505 61.0612 22.6619 60.6427 22.9759C60.2241 23.2836 59.9471 23.6714 59.8117 24.1392L56.1739 23.8438C56.3586 22.982 56.7217 22.2372 57.2634 21.6094C57.8051 20.9754 58.5037 20.4891 59.3593 20.1506C60.221 19.8059 61.2182 19.6335 62.3508 19.6335C63.1386 19.6335 63.8927 19.7259 64.6128 19.9105C65.3392 20.0952 65.9824 20.3814 66.5425 20.7692C67.1088 21.157 67.5551 21.6555 67.8813 22.2649C68.2075 22.8681 68.3706 23.5914 68.3706 24.4347V34H64.6405V32.0334H64.5297C64.302 32.4766 63.9973 32.8674 63.6157 33.206C63.234 33.5384 62.7755 33.8 62.24 33.9908C61.7045 34.1754 61.0858 34.2678 60.3841 34.2678ZM61.5106 31.5533C62.0892 31.5533 62.6001 31.4394 63.0432 31.2116C63.4864 30.9777 63.8342 30.6638 64.0866 30.2699C64.3389 29.8759 64.4651 29.4297 64.4651 28.9311V27.4261C64.342 27.5062 64.1727 27.58 63.9573 27.6477C63.748 27.7093 63.511 27.7678 63.2464 27.8232C62.9817 27.8724 62.717 27.9186 62.4523 27.9616C62.1876 27.9986 61.9476 28.0324 61.7322 28.0632C61.2705 28.1309 60.8673 28.2386 60.5226 28.3864C60.1779 28.5341 59.9102 28.7341 59.7194 28.9865C59.5286 29.2327 59.4331 29.5405 59.4331 29.9098C59.4331 30.4453 59.627 30.8546 60.0148 31.1378C60.4088 31.4148 60.9073 31.5533 61.5106 31.5533ZM83.2219 23.8622L79.621 24.0838C79.5595 23.776 79.4271 23.4991 79.224 23.2528C79.0209 23.0005 78.7531 22.8004 78.4207 22.6527C78.0945 22.4988 77.7036 22.4219 77.2481 22.4219C76.6388 22.4219 76.1248 22.5511 75.7062 22.8097C75.2877 23.062 75.0784 23.4006 75.0784 23.8253C75.0784 24.1638 75.2138 24.45 75.4846 24.6839C75.7555 24.9179 76.2202 25.1056 76.8788 25.2472L79.4456 25.7642C80.8244 26.0473 81.8523 26.5028 82.5294 27.1307C83.2065 27.7585 83.545 28.5833 83.545 29.6051C83.545 30.5346 83.2711 31.3501 82.7233 32.0518C82.1816 32.7536 81.4368 33.3014 80.4889 33.6953C79.5471 34.0831 78.4607 34.277 77.2297 34.277C75.3523 34.277 73.8566 33.8861 72.7425 33.1044C71.6345 32.3165 70.9851 31.2455 70.7943 29.8913L74.6629 29.6882C74.7799 30.2607 75.063 30.6977 75.5123 30.9993C75.9617 31.2947 76.5372 31.4425 77.2389 31.4425C77.9283 31.4425 78.4823 31.3101 78.9008 31.0455C79.3256 30.7746 79.541 30.4268 79.5471 30.0021C79.541 29.6451 79.3902 29.3527 79.0947 29.125C78.7993 28.8911 78.3438 28.7126 77.7282 28.5895L75.2723 28.1001C73.8873 27.8232 72.8563 27.343 72.1792 26.6598C71.5083 25.9766 71.1729 25.1056 71.1729 24.0469C71.1729 23.1359 71.4191 22.3511 71.9115 21.6925C72.4101 21.0339 73.1087 20.526 74.0074 20.169C74.9122 19.812 75.9709 19.6335 77.1835 19.6335C78.9747 19.6335 80.3843 20.0121 81.4122 20.7692C82.4463 21.5263 83.0495 22.5573 83.2219 23.8622ZM89.955 25.8011V34H86.0218V15.0909H89.8442V22.3203H90.0104C90.3305 21.4832 90.8475 20.8277 91.5615 20.3537C92.2755 19.8736 93.1711 19.6335 94.2483 19.6335C95.2332 19.6335 96.0918 19.849 96.8243 20.2798C97.5629 20.7045 98.1354 21.317 98.5416 22.1172C98.954 22.9112 99.1572 23.8622 99.151 24.9702V34H95.2178V25.6719C95.2239 24.7978 95.0023 24.1177 94.553 23.6314C94.1098 23.1451 93.4881 22.902 92.6879 22.902C92.1524 22.902 91.6785 23.0159 91.2661 23.2436C90.8598 23.4714 90.5397 23.8037 90.3058 24.2408C90.0781 24.6716 89.9611 25.1918 89.955 25.8011ZM109.79 19.8182V22.7727H101.249V19.8182H109.79ZM103.188 16.4205H107.121V29.642C107.121 30.0052 107.177 30.2884 107.288 30.4915C107.398 30.6884 107.552 30.8269 107.749 30.907C107.952 30.987 108.186 31.027 108.451 31.027C108.636 31.027 108.82 31.0116 109.005 30.9808C109.19 30.9439 109.331 30.9162 109.43 30.8977L110.048 33.8246C109.851 33.8861 109.574 33.9569 109.217 34.0369C108.86 34.1231 108.426 34.1754 107.915 34.1939C106.967 34.2308 106.137 34.1046 105.422 33.8153C104.715 33.526 104.164 33.0767 103.77 32.4673C103.376 31.858 103.182 31.0885 103.188 30.1591V16.4205ZM112.352 34V19.8182H116.165V22.2926H116.313C116.571 21.4124 117.005 20.7476 117.615 20.2983C118.224 19.8428 118.926 19.6151 119.72 19.6151C119.917 19.6151 120.129 19.6274 120.357 19.652C120.585 19.6766 120.785 19.7105 120.957 19.7536V23.2436C120.772 23.1882 120.517 23.139 120.191 23.0959C119.864 23.0528 119.566 23.0312 119.295 23.0312C118.716 23.0312 118.199 23.1574 117.744 23.4098C117.295 23.656 116.938 24.0007 116.673 24.4439C116.414 24.8871 116.285 25.398 116.285 25.9766V34H112.352ZM126.628 34.2678C125.723 34.2678 124.917 34.1108 124.209 33.7969C123.501 33.4768 122.941 33.0059 122.529 32.3842C122.123 31.7564 121.919 30.9747 121.919 30.0391C121.919 29.2512 122.064 28.5895 122.353 28.054C122.643 27.5185 123.037 27.0876 123.535 26.7614C124.034 26.4351 124.6 26.1889 125.234 26.0227C125.874 25.8565 126.545 25.7396 127.247 25.6719C128.072 25.5857 128.736 25.5057 129.241 25.4318C129.746 25.3518 130.112 25.2348 130.34 25.081C130.568 24.9271 130.682 24.6993 130.682 24.3977V24.3423C130.682 23.7576 130.497 23.3052 130.128 22.9851C129.764 22.665 129.247 22.505 128.576 22.505C127.869 22.505 127.305 22.6619 126.887 22.9759C126.468 23.2836 126.191 23.6714 126.056 24.1392L122.418 23.8438C122.603 22.982 122.966 22.2372 123.508 21.6094C124.049 20.9754 124.748 20.4891 125.603 20.1506C126.465 19.8059 127.462 19.6335 128.595 19.6335C129.383 19.6335 130.137 19.7259 130.857 19.9105C131.583 20.0952 132.227 20.3814 132.787 20.7692C133.353 21.157 133.799 21.6555 134.125 22.2649C134.452 22.8681 134.615 23.5914 134.615 24.4347V34H130.885V32.0334H130.774C130.546 32.4766 130.241 32.8674 129.86 33.206C129.478 33.5384 129.02 33.8 128.484 33.9908C127.949 34.1754 127.33 34.2678 126.628 34.2678ZM127.755 31.5533C128.333 31.5533 128.844 31.4394 129.287 31.2116C129.731 30.9777 130.078 30.6638 130.331 30.2699C130.583 29.8759 130.709 29.4297 130.709 28.9311V27.4261C130.586 27.5062 130.417 27.58 130.201 27.6477C129.992 27.7093 129.755 27.7678 129.491 27.8232C129.226 27.8724 128.961 27.9186 128.696 27.9616C128.432 27.9986 128.192 28.0324 127.976 28.0632C127.515 28.1309 127.111 28.2386 126.767 28.3864C126.422 28.5341 126.154 28.7341 125.964 28.9865C125.773 29.2327 125.677 29.5405 125.677 29.9098C125.677 30.4453 125.871 30.8546 126.259 31.1378C126.653 31.4148 127.151 31.5533 127.755 31.5533ZM144.074 34.277C142.621 34.277 141.372 33.9692 140.325 33.3537C139.285 32.732 138.485 31.8703 137.925 30.7685C137.371 29.6667 137.094 28.3987 137.094 26.9645C137.094 25.5118 137.374 24.2377 137.934 23.142C138.5 22.0402 139.304 21.1816 140.344 20.5661C141.384 19.9444 142.621 19.6335 144.055 19.6335C145.293 19.6335 146.376 19.8582 147.305 20.3075C148.235 20.7569 148.97 21.3878 149.512 22.2003C150.054 23.0128 150.352 23.9669 150.408 25.0625H146.696C146.591 24.3546 146.314 23.7853 145.865 23.3544C145.422 22.9174 144.84 22.6989 144.12 22.6989C143.511 22.6989 142.978 22.8651 142.523 23.1974C142.073 23.5237 141.723 24.0007 141.47 24.6286C141.218 25.2564 141.092 26.0166 141.092 26.9091C141.092 27.8139 141.215 28.5833 141.461 29.2173C141.713 29.8513 142.067 30.3345 142.523 30.6669C142.978 30.9993 143.511 31.1655 144.12 31.1655C144.569 31.1655 144.973 31.0732 145.33 30.8885C145.693 30.7038 145.991 30.4361 146.225 30.0852C146.465 29.7282 146.622 29.3004 146.696 28.8018H150.408C150.346 29.8852 150.051 30.8393 149.521 31.6641C148.998 32.4827 148.275 33.1229 147.352 33.5845C146.428 34.0462 145.336 34.277 144.074 34.277ZM156.49 29.919L156.499 25.201H157.072L161.614 19.8182H166.129L160.026 26.946H159.094L156.49 29.919ZM152.926 34V15.0909H156.859V34H152.926ZM161.79 34L157.616 27.8232L160.239 25.044L166.397 34H161.79Z" fill="white"/>
<path d="M21.1983 14.8073C22.5257 14.8085 23.838 15.0961 25.0495 15.6512C26.261 16.2064 27.3446 17.0167 28.2295 18.0292L31 15.4732C29.2266 13.455 26.9 12.0307 24.3238 11.3862C21.7476 10.7416 19.0413 10.9068 16.5582 11.8601C14.075 12.8134 11.9303 14.5106 10.4039 16.7301C8.87744 18.9497 8.04024 21.5885 8.00141 24.3024C7.96259 27.0163 8.72402 29.6791 10.1863 31.9434C11.6486 34.2078 13.7438 35.9685 16.1987 36.9957C18.6535 38.023 21.3539 38.2691 23.9475 37.7021C26.541 37.135 28.9073 35.781 30.7377 33.8168L28.0301 31.1855C26.9515 32.3399 25.6103 33.2026 24.1263 33.6968C22.6423 34.191 21.0618 34.3011 19.526 34.0174C17.9902 33.7337 16.5472 33.0649 15.3257 32.0709C14.1042 31.0769 13.1424 29.7887 12.5263 28.3213C11.9102 26.8539 11.659 25.2532 11.7951 23.6622C11.9312 22.0712 12.4504 20.5394 13.3063 19.204C14.1622 17.8685 15.3281 16.7709 16.6999 16.0093C18.0716 15.2477 19.6063 14.8458 21.1669 14.8395L21.1983 14.8073Z" fill="white"/>
<path d="M9 11.5495L6.40247 9C4.37329 10.9664 2.76313 13.3038 1.66436 15.878C0.56565 18.4522 0 21.2123 0 24C0 26.7877 0.56565 29.5478 1.66436 32.122C2.76313 34.6962 4.37329 37.0336 6.40247 39L9 36.4505C7.30819 34.8224 5.96501 32.8837 5.04823 30.7464C4.13151 28.6092 3.65946 26.3161 3.65946 24C3.65946 21.6839 4.13151 19.3908 5.04823 17.2536C5.96501 15.1163 7.30819 13.1776 9 11.5495Z" fill="white"/>
<path d="M34 7.12065C30.5204 4.43832 26.3159 2.99454 22 3.00002V6.61194C25.5612 6.60851 29.0311 7.79507 31.908 10L34 7.12065Z" fill="white"/>
<path d="M22 42.0804V46C25.9063 46.005 29.7291 44.7004 33 42.246L31.0786 39C28.3757 41.0153 25.2219 42.0855 22 42.0804Z" fill="white"/>
<path d="M22 37.5168C19.0555 37.5149 16.1826 36.6971 13.7704 35.1737C11.3581 33.6504 9.52289 31.4952 8.51309 29L5 30.4718C6.32294 33.5705 8.65534 36.2351 11.69 38.1144C14.7246 39.9938 18.3191 40.9998 22 41V37.5168Z" fill="white"/>
<path d="M8.60727 24C8.82657 20.4229 10.3326 17.0673 12.8198 14.6142C15.307 12.1612 18.589 10.7943 22 10.7908V7C17.6319 6.99986 13.4309 8.7646 10.2665 11.929C7.10205 15.0934 5.21642 19.4152 5 24H8.60727Z" fill="white"/>
</svg>
