<svg width="31" height="28" viewBox="0 0 31 28" fill="none" xmlns="http://www.w3.org/2000/svg">
<path d="M6.65067 16.6164C9.21916 16.6164 11.3013 18.6986 11.3013 21.2671C11.3013 23.8356 9.21916 25.9177 6.65067 25.9177C4.08217 25.9177 2 23.8356 2 21.2671C2 18.6986 4.08217 16.6164 6.65067 16.6164Z" stroke="white" stroke-width="3" stroke-linecap="round" stroke-linejoin="round"/>
<path d="M6.65067 1.99994C9.21916 1.99994 11.3013 4.08211 11.3013 6.6506C11.3013 9.2191 9.21916 11.3013 6.65067 11.3013C4.08217 11.3013 2 9.2191 2 6.6506C2 4.08211 4.08217 1.99994 6.65067 1.99994Z" stroke="white" stroke-width="3" stroke-linecap="round" stroke-linejoin="round"/>
<path d="M28.575 21.9314L10.8361 8.67035" stroke="white" stroke-width="3" stroke-linecap="round" stroke-linejoin="round"/>
<path d="M28.575 6.02618L10.8361 19.3005" stroke="white" stroke-width="3" stroke-linecap="round" stroke-linejoin="round"/>
</svg>
